<svg width="91.838593" height="70.405762" viewBox="0 0 91.8386 70.4058" fill="none" xmlns="http://www.w3.org/2000/svg" xmlns:xlink="http://www.w3.org/1999/xlink">
	<desc>
			Created with Pixso.
	</desc>
	<defs/>
	<path d="M45.91 27.46C54.52 27.46 61.52 21.3 61.52 13.73C61.52 6.16 54.52 0 45.91 0C37.31 0 30.31 6.16 30.31 13.73C30.31 21.3 37.31 27.46 45.91 27.46ZM45.91 4.73C51.55 4.73 56.14 8.77 56.14 13.73C56.14 18.69 51.55 22.73 45.91 22.73C40.28 22.73 35.69 18.69 35.69 13.73C35.69 8.77 40.28 4.73 45.91 4.73Z" fill="#2352DE" fill-opacity="1.000000" fill-rule="nonzero"/>
	<path d="M77.48 27.46C82.92 27.46 87.35 23.57 87.35 18.78C87.35 13.99 82.92 10.1 77.48 10.1C72.04 10.1 67.62 13.99 67.62 18.78C67.62 23.57 72.04 27.46 77.48 27.46ZM77.48 14.83C79.96 14.83 81.97 16.6 81.97 18.78C81.97 20.96 79.96 22.73 77.48 22.73C75.01 22.73 73 20.96 73 18.78C73 16.6 75.01 14.83 77.48 14.83Z" fill="#2352DE" fill-opacity="1.000000" fill-rule="nonzero"/>
	<path d="M79.65 32.83L75.49 32.83C70.59 32.83 66.36 35.38 64.43 39.04C60.46 35.23 54.75 32.83 48.42 32.83L43.41 32.83C37.08 32.83 31.37 35.23 27.4 39.04C25.47 35.38 21.24 32.83 16.34 32.83L12.17 32.83C5.46 32.83 0 37.61 0 43.48L0 60.72C0 63.27 2.36 65.35 5.27 65.35L21.72 65.35C22 68.17 24.7 70.4 27.98 70.4L63.85 70.4C67.13 70.4 69.83 68.17 70.1 65.35L86.37 65.35C89.38 65.35 91.83 63.2 91.83 60.56L91.83 43.48C91.83 37.61 86.37 32.83 79.65 32.83ZM5.38 43.48C5.38 40.22 8.43 37.57 12.17 37.57L16.34 37.57C20.08 37.57 23.13 40.22 23.13 43.48L23.13 45.11C21.32 49.25 21.7 51.74 21.7 60.61L5.38 60.61L5.38 43.48ZM64.75 64.87C64.75 65.31 64.34 65.66 63.85 65.66L27.98 65.66C27.48 65.66 27.08 65.31 27.08 64.87L27.08 51.93C27.08 44.01 34.4 37.57 43.41 37.57L48.42 37.57C57.42 37.57 64.75 44.01 64.75 51.93L64.75 64.87ZM86.45 60.56C86.45 60.64 87.46 60.61 70.13 60.61C70.13 51.67 70.5 49.24 68.69 45.11L68.69 43.48C68.69 40.22 71.74 37.57 75.49 37.57L79.65 37.57C83.4 37.57 86.45 40.22 86.45 43.48L86.45 60.56Z" fill="#2352DE" fill-opacity="1.000000" fill-rule="nonzero"/>
	<path d="M14.34 27.46C19.78 27.46 24.21 23.57 24.21 18.78C24.21 13.99 19.78 10.1 14.34 10.1C8.9 10.1 4.48 13.99 4.48 18.78C4.48 23.57 8.9 27.46 14.34 27.46ZM14.34 14.83C16.82 14.83 18.83 16.6 18.83 18.78C18.83 20.96 16.82 22.73 14.34 22.73C11.87 22.73 9.86 20.96 9.86 18.78C9.86 16.6 11.87 14.83 14.34 14.83Z" fill="#2352DE" fill-opacity="1.000000" fill-rule="nonzero"/>
</svg>
