<svg width="79.636414" height="70.405762" viewBox="0 0 79.6364 70.4058" fill="none" xmlns="http://www.w3.org/2000/svg" xmlns:xlink="http://www.w3.org/1999/xlink">
	<desc>
			Created with Pixso.
	</desc>
	<defs/>
	<path d="M48.86 13.56C51.94 11.38 52.64 9.04 52.68 7.47C52.78 3.63 49.34 0.83 48.95 0.52C47.98 -0.24 46.49 -0.17 45.62 0.69C44.76 1.55 44.84 2.86 45.82 3.62C45.84 3.64 48.02 5.43 47.97 7.37C47.94 8.4 47.26 9.37 45.9 10.34C42.83 12.52 42.13 14.86 42.09 16.44C41.98 20.27 45.42 23.08 45.82 23.38C46.27 23.73 46.83 23.91 47.39 23.91C48.04 23.91 48.68 23.67 49.15 23.21C50.01 22.36 49.93 21.05 48.96 20.29C48.34 19.79 46.75 18.15 46.8 16.52C46.83 15.49 47.51 14.53 48.86 13.56Z" fill="#2352DE" fill-opacity="1.000000" fill-rule="nonzero"/>
	<path d="M33.91 13.56C36.99 11.38 37.68 9.04 37.72 7.47C37.83 3.63 34.39 0.83 33.99 0.52C33.02 -0.24 31.53 -0.17 30.67 0.69C29.8 1.55 29.89 2.86 30.86 3.62C30.88 3.64 33.06 5.43 33.01 7.37C32.98 8.4 32.31 9.37 30.95 10.34C27.87 12.52 27.18 14.86 27.13 16.44C27.03 20.27 30.47 23.08 30.86 23.38C31.31 23.73 31.87 23.91 32.43 23.91C33.08 23.91 33.73 23.67 34.19 23.21C35.06 22.36 34.98 21.05 34 20.29C33.39 19.79 31.79 18.15 31.85 16.52C31.88 15.49 32.56 14.53 33.91 13.56Z" fill="#2352DE" fill-opacity="1.000000" fill-rule="nonzero"/>
	<path d="M67.65 33.84L64.86 33.84L64.86 32.32C64.86 31.18 63.81 30.25 62.5 30.25L2.35 30.25C1.05 30.25 0 31.18 0 32.32L0 43.27C0 52.94 6.08 61.45 15.21 66.25L2.35 66.25C1.05 66.25 0 67.18 0 68.33C0 69.47 1.05 70.4 2.35 70.4L62.5 70.4C63.81 70.4 64.86 69.47 64.86 68.33C64.86 67.18 63.81 66.25 62.5 66.25L49.64 66.25C54.84 63.52 59.05 59.59 61.71 54.93L67.65 54.93C74.26 54.93 79.63 50.2 79.63 44.39C79.63 38.57 74.26 33.84 67.65 33.84ZM60.15 43.27C60.15 55.94 47.71 66.25 32.43 66.25C17.14 66.25 4.71 55.94 4.71 43.27L4.71 34.4L60.15 34.4L60.15 43.27L60.15 43.27ZM67.65 50.78L63.59 50.78C64.42 48.4 64.86 45.87 64.86 43.27L64.86 37.99L67.65 37.99C71.66 37.99 74.92 40.86 74.92 44.39C74.92 47.91 71.66 50.78 67.65 50.78Z" fill="#2352DE" fill-opacity="1.000000" fill-rule="nonzero"/>
	<path d="M18.96 13.56C22.03 11.38 22.73 9.04 22.77 7.47C22.87 3.63 19.43 0.83 19.04 0.52C18.07 -0.24 16.58 -0.17 15.71 0.69C14.85 1.55 14.94 2.86 15.91 3.62C15.93 3.64 18.11 5.43 18.06 7.37C18.03 8.4 17.35 9.37 15.99 10.34C12.92 12.52 12.22 14.86 12.18 16.44C12.08 20.27 15.52 23.07 15.91 23.38C16.36 23.73 16.92 23.91 17.47 23.91C18.12 23.91 18.77 23.67 19.24 23.21C20.1 22.35 20.01 21.04 19.04 20.28C19.02 20.27 16.84 18.47 16.89 16.53C16.92 15.5 17.59 14.53 18.96 13.56Z" fill="#2352DE" fill-opacity="1.000000" fill-rule="nonzero"/>
</svg>
