<svg width="160.838257" height="52.309998" viewBox="0 0 160.838 52.31" fill="none" xmlns="http://www.w3.org/2000/svg" xmlns:xlink="http://www.w3.org/1999/xlink">
	<desc>
			Created with Pixso.
	</desc>
	<defs/>
	<path d="M0 26.15L0 52.3L23.26 52.3C36.05 52.3 72.18 52.31 103.54 52.3L160.55 52.3L160.69 26.15L160.83 0L80.41 0L0 0L0 26.15ZM46.25 26.42L46.25 50.68L23.93 50.68L1.61 50.68L1.61 26.42L1.61 2.15L23.93 2.15L46.25 2.15L46.25 26.42ZM10.19 11.88C9.13 12.95 9.1 13.48 9.25 27.57L9.41 42.15L10.68 43.18C11.85 44.13 12.95 44.21 24.76 44.21C38.56 44.21 39.27 44.07 39.25 41.34C39.23 38.63 38.97 38.57 27.04 38.28L15.86 38.01L15.72 25.37C15.59 14.56 15.45 12.59 14.69 11.75C13.53 10.46 11.55 10.52 10.19 11.88ZM63.14 17.56C63.32 18.03 63.47 21.43 63.47 25.11L63.47 31.81L69.67 31.81C74.71 31.81 75.93 31.96 76.18 32.62C76.36 33.07 76.2 33.8 75.83 34.24C74.84 35.44 61.75 35.4 60.55 34.2C59.85 33.5 59.7 31.91 59.7 25.39C59.7 21.01 59.86 17.27 60.06 17.07C60.74 16.38 62.81 16.71 63.14 17.56ZM94.81 17.45C102.06 20.56 102.06 31.19 94.81 34.3C92.05 35.49 86.71 35.24 84.19 33.81C81 32 79.6 29.59 79.6 25.88C79.6 22.03 81.06 19.63 84.43 17.92C87.22 16.51 92.1 16.29 94.81 17.45ZM119.9 17.65C122.41 18.94 123.14 20.21 122.02 21.33C121.23 22.12 120.98 22.1 118.96 21.07C113.72 18.39 107.57 20.98 107.57 25.88C107.57 27.74 109.1 30.12 110.9 31.05C113.36 32.32 118.17 31.86 119.5 30.21C121.28 28 120.82 27.55 116.58 27.38C112.82 27.23 112.68 27.18 112.68 25.88C112.68 24.55 112.77 24.53 117.33 24.37C122.77 24.19 123.71 24.73 123.71 28.03C123.71 32.11 119.79 35.04 114.35 35.04C110.69 35.04 108.87 34.37 106.62 32.2C102.16 27.89 103.68 19.98 109.45 17.46C111.85 16.41 117.69 16.52 119.9 17.65ZM143.63 17.95C146.38 19.41 148.45 22.82 148.45 25.88C148.45 28.94 146.38 32.35 143.63 33.8C138.93 36.29 131.67 34.96 128.85 31.09C127.99 29.91 127.74 28.75 127.74 25.88C127.74 23 127.99 21.84 128.85 20.66C131.67 16.79 138.93 15.46 143.63 17.95ZM85.69 21C83.57 22.29 82.68 25 83.44 27.79C84.93 33.17 94.49 33.18 96.26 27.81C97.14 25.15 96.18 22.36 93.94 20.98C91.71 19.62 87.92 19.63 85.69 21ZM133.93 20.83C131.76 22.37 131.28 23.3 131.26 25.94C131.24 27.92 131.53 28.71 132.67 29.86C134.41 31.6 135.92 32.03 139.13 31.66C142.7 31.26 144.42 29.38 144.42 25.88C144.42 22.05 142.67 20.36 138.39 20.08C136.03 19.92 134.95 20.1 133.93 20.83Z" fill="#FFFFFF" fill-opacity="1.000000" fill-rule="evenodd"/>
</svg>
