<svg width="80.313721" height="70.405762" viewBox="0 0 80.3137 70.4058" fill="none" xmlns="http://www.w3.org/2000/svg" xmlns:xlink="http://www.w3.org/1999/xlink">
	<desc>
			Created with Pixso.
	</desc>
	<defs/>
	<path d="M71.68 0L27.76 0C23 0 19.13 3.4 19.13 7.59L19.13 24.84L8.62 24.84C3.87 24.84 0 28.25 0 32.44L0 54.52C0 58.71 3.87 62.12 8.62 62.12L23.05 62.12L28.63 69.48C29.06 70.05 29.8 70.4 30.58 70.4C31.37 70.4 32.1 70.05 32.54 69.48L38.12 62.12L52.54 62.12C57.3 62.12 61.17 58.71 61.17 54.52L61.17 37.27L71.68 37.27C76.44 37.27 80.31 33.86 80.31 29.68L80.31 7.59C80.31 3.4 76.44 0 71.68 0ZM56.47 54.52C56.47 56.43 54.71 57.98 52.54 57.98L36.86 57.98C36.07 57.98 35.34 58.32 34.9 58.9L30.58 64.6L26.27 58.9C25.83 58.32 25.1 57.98 24.31 57.98L8.62 57.98C6.46 57.98 4.7 56.43 4.7 54.52L4.7 32.44C4.7 30.53 6.46 28.99 8.62 28.99L19.13 28.99L19.13 29.68C19.13 30.92 19.48 32.09 20.08 33.13L11.76 33.13C10.46 33.13 9.41 34.05 9.41 35.2C9.41 36.34 10.46 37.27 11.76 37.27L42.19 37.27L45.32 41.41L11.76 41.41C10.46 41.41 9.41 42.34 9.41 43.48C9.41 44.62 10.46 45.55 11.76 45.55L49.72 45.55C50.51 45.55 51.24 45.21 51.68 44.63L56.47 38.31L56.47 54.52ZM75.6 29.68C75.6 31.58 73.84 33.13 71.68 33.13L56 33.13C55.21 33.13 54.47 33.47 54.04 34.05L49.72 39.75L45.4 34.05C44.97 33.47 44.23 33.13 43.45 33.13L27.76 33.13C25.6 33.13 23.84 31.58 23.84 29.68L23.84 7.59C23.84 5.68 25.6 4.14 27.76 4.14L71.68 4.14C73.84 4.14 75.6 5.68 75.6 7.59L75.6 29.68Z" fill="#2352DE" fill-opacity="1.000000" fill-rule="nonzero"/>
	<path d="M49.41 49.69L11.76 49.69C10.46 49.69 9.41 50.62 9.41 51.76C9.41 52.91 10.46 53.83 11.76 53.83L49.41 53.83C50.71 53.83 51.76 52.91 51.76 51.76C51.76 50.62 50.71 49.69 49.41 49.69Z" fill="#2352DE" fill-opacity="1.000000" fill-rule="nonzero"/>
	<path d="M61.04 14.41L54.68 13.6L51.83 8.52C51.43 7.82 50.62 7.37 49.72 7.37C48.82 7.37 48.01 7.82 47.61 8.52L44.76 13.6L38.4 14.41C37.52 14.53 36.78 15.07 36.5 15.82C36.23 16.57 36.46 17.39 37.1 17.95L41.7 21.89L40.61 27.47C40.46 28.25 40.83 29.03 41.55 29.5C42.28 29.96 43.24 30.02 44.03 29.66L49.72 27.02L55.41 29.66C55.76 29.81 56.13 29.89 56.51 29.89C56.99 29.89 57.48 29.76 57.89 29.5C58.61 29.03 58.98 28.25 58.83 27.47L57.74 21.89L62.34 17.95C62.98 17.4 63.22 16.57 62.94 15.82C62.66 15.07 61.93 14.53 61.04 14.41ZM53.57 19.69C53.01 20.16 52.76 20.85 52.89 21.52L53.38 24.04L50.82 22.85C50.47 22.69 50.1 22.61 49.72 22.61C49.34 22.61 48.97 22.69 48.63 22.85L46.06 24.04L46.55 21.52C46.68 20.85 46.43 20.16 45.87 19.69L43.8 17.91L46.67 17.54C47.43 17.44 48.1 17.02 48.44 16.41L49.72 14.12L51 16.41C51.35 17.02 52.01 17.44 52.78 17.54L55.65 17.91L53.57 19.69Z" fill="#2352DE" fill-opacity="1.000000" fill-rule="nonzero"/>
</svg>
