<svg width="97.148621" height="70.405762" viewBox="0 0 97.1486 70.4058" fill="none" xmlns="http://www.w3.org/2000/svg" xmlns:xlink="http://www.w3.org/1999/xlink">
	<desc>
			Created with Pixso.
	</desc>
	<defs/>
	<path id="Vector" d="M89.56 10.12L69.08 10.12L69.08 6.89C69.08 3.09 65.57 0 61.24 0L35.9 0C31.57 0 28.06 3.09 28.06 6.89L28.06 10.12L7.58 10.12C3.4 10.12 0 13.11 0 16.79L0 63.73C0 67.41 3.4 70.4 7.58 70.4L89.56 70.4C93.74 70.4 97.14 67.41 97.14 63.73L97.14 16.79C97.14 13.11 93.74 10.12 89.56 10.12ZM34.68 6.89C34.68 6.3 35.23 5.82 35.9 5.82L61.24 5.82C61.91 5.82 62.46 6.3 62.46 6.89L62.46 10.12L34.68 10.12L34.68 6.89ZM7.58 15.95L89.56 15.95C90.09 15.95 90.52 16.33 90.52 16.79L90.52 32.08C80.26 35.43 64.78 37.41 48.54 37.41C32.34 37.41 16.88 35.44 6.62 32.1L6.62 16.79C6.62 16.33 7.05 15.95 7.58 15.95ZM89.56 64.57L7.58 64.57C7.05 64.57 6.62 64.19 6.62 63.73L6.62 38.28C16.01 41 28.36 42.71 41.82 43.14C41.82 43.17 41.81 43.2 41.81 43.24L41.81 44.52C41.81 46.93 44.04 48.89 46.78 48.89L50.36 48.89C53.1 48.89 55.33 46.93 55.33 44.52L55.33 43.24C55.33 43.2 55.32 43.17 55.32 43.13C68.79 42.7 81.14 40.99 90.52 38.26L90.52 63.73C90.52 64.19 90.09 64.57 89.56 64.57Z" fill="#2352DE" fill-opacity="1.000000" fill-rule="nonzero"/>
</svg>
